<svg width="30" height="30" viewBox="0 0 30 30" fill="none" xmlns="http://www.w3.org/2000/svg">
<rect width="30" height="30" rx="15" fill="white"/>
<path d="M22.5 22.4998V7.1998C22.5 5.8744 21.4254 4.7998 20.1 4.7998H9C8.1717 4.7998 7.5 5.4715 7.5 6.2998V22.7998H22.2C22.3656 22.7998 22.5 22.6654 22.5 22.4998Z" fill="#A3A3CD"/>
<path d="M12.3 22.7998V4.7998H9C8.172 4.7998 7.5 5.4718 7.5 6.2998V22.7998H12.3Z" fill="#666AAD"/>
<path d="M21.6 23.85C21.6 24.4377 21.9756 25.0146 22.5 25.2H8.85C8.1045 25.2 7.5 24.5955 7.5 23.85C7.5 23.1045 8.1045 22.5 8.85 22.5H22.5C21.9756 22.6854 21.6 23.2623 21.6 23.85Z" fill="#FEFDEF"/>
<path d="M14.55 4.0498V13.3498L12.15 12.1498L9.75 13.3498V4.0498H14.55Z" fill="#FCBA7F"/>
<path d="M22.5 25.5002H8.84995C7.94005 25.5002 7.19995 24.7598 7.19995 23.8502C7.19995 22.9406 7.94005 22.2002 8.84995 22.2002H22.5C22.6461 22.2002 22.7709 22.3055 22.7955 22.4495C22.8204 22.5932 22.7376 22.7342 22.5999 22.7828C22.2009 22.9241 21.9 23.3828 21.9 23.8502C21.9 24.3176 22.2009 24.7763 22.5999 24.9176C22.7376 24.9662 22.8201 25.1072 22.7955 25.2509C22.7709 25.3949 22.6461 25.5002 22.5 25.5002ZM8.84995 22.8002C8.27095 22.8002 7.79995 23.2712 7.79995 23.8502C7.79995 24.4292 8.27095 24.9002 8.84995 24.9002H21.6444C21.429 24.6017 21.3 24.2306 21.3 23.8502C21.3 23.4698 21.429 23.0987 21.6444 22.8002H8.84995Z" fill="#1F212B"/>
<path d="M21.45 23.7H9.44995C9.36715 23.7 9.29995 23.6328 9.29995 23.55C9.29995 23.4672 9.36715 23.4 9.44995 23.4H21.45C21.5328 23.4 21.6 23.4672 21.6 23.55C21.6 23.6328 21.5328 23.7 21.45 23.7ZM21.45 24.3H12.15C12.0672 24.3 12 24.2328 12 24.15C12 24.0672 12.0672 24 12.15 24H21.45C21.5328 24 21.6 24.0672 21.6 24.15C21.6 24.2328 21.5328 24.3 21.45 24.3ZM7.79995 23.85H7.19995V6.3C7.19995 5.3073 8.00725 4.5 8.99995 4.5H9.74995V5.1H8.99995C8.33815 5.1 7.79995 5.6382 7.79995 6.3V23.85ZM22.8 22.5H22.2V7.2C22.2 6.0423 21.2579 5.1 20.1 5.1H14.55V4.5H20.1C21.5886 4.5 22.8 5.7111 22.8 7.2V22.5ZM12.15 18C12.0672 18 12 17.9328 12 17.85V12.15C12 12.0672 12.0672 12 12.15 12C12.2328 12 12.3 12.0672 12.3 12.15V17.85C12.3 17.9328 12.2328 18 12.15 18ZM12.15 19.5C12.0672 19.5 12 19.4328 12 19.35V18.75C12 18.6672 12.0672 18.6 12.15 18.6C12.2328 18.6 12.3 18.6672 12.3 18.75V19.35C12.3 19.4328 12.2328 19.5 12.15 19.5ZM12.15 20.4C12.0672 20.4 12 20.3328 12 20.25V19.95C12 19.8672 12.0672 19.8 12.15 19.8C12.2328 19.8 12.3 19.8672 12.3 19.95V20.25C12.3 20.3328 12.2328 20.4 12.15 20.4Z" fill="#1F212B"/>
<path d="M14.5501 13.5004C14.527 13.5004 14.5042 13.495 14.4829 13.4845L12.1501 12.3181L9.8173 13.4848C9.7705 13.5076 9.7156 13.5049 9.6715 13.4785C9.6271 13.4506 9.6001 13.4023 9.6001 13.3504V4.05039C9.6001 3.96759 9.6673 3.90039 9.7501 3.90039H14.5501C14.6329 3.90039 14.7001 3.96759 14.7001 4.05039V13.3504C14.7001 13.4023 14.6731 13.4506 14.629 13.4782C14.605 13.4929 14.5774 13.5004 14.5501 13.5004ZM12.1501 12.0004C12.1732 12.0004 12.196 12.0058 12.2173 12.0163L14.4001 13.1077V4.20039H9.9001V13.1077L12.0829 12.016C12.1042 12.0058 12.127 12.0004 12.1501 12.0004Z" fill="#1F212B"/>
</svg>
