<svg width="201" height="165" viewBox="0 0 201 165" fill="none" xmlns="http://www.w3.org/2000/svg">
<g filter="url(#filter0_d)">
<circle cx="98.5192" cy="45" r="25" fill="url(#paint0_linear)"/>
<path d="M93.5604 53H104.572V51.125H96.4581V50.9886L100.379 46.7955C103.379 43.5824 104.265 42.0824 104.265 40.1477C104.265 37.4545 102.083 35.3068 99.0149 35.3068C95.9552 35.3068 93.6285 37.3864 93.6285 40.4545H95.6399C95.6399 38.4688 96.9268 37.1477 98.9467 37.1477C100.839 37.1477 102.288 38.3068 102.288 40.1477C102.288 41.7585 101.342 42.9517 99.3217 45.1591L93.5604 51.4659V53Z" fill="white"/>
<path d="M47.5177 100H54.3814V99.0455H48.5802V94.6534H53.9098V93.6989H48.5802V89.3182H54.2677V88.3636H47.5177V100ZM57.8189 94.5455C57.8189 93.0227 58.8189 92.0852 60.1939 92.0852C61.5348 92.0852 62.3984 92.983 62.3984 94.4091V100H63.4098V94.3466C63.4098 92.2784 62.2109 91.1591 60.4496 91.1591C59.1712 91.1591 58.2905 91.75 57.8814 92.642H57.7905V91.2727H56.8075V100H57.8189V94.5455ZM69.5106 91.2727H67.6641V89.1818H66.647V91.2727H65.3459V92.1534H66.647V97.9602C66.647 99.3864 67.772 100.131 68.8913 100.131C69.3118 100.131 69.5959 100.051 69.7891 99.9773L69.5731 99.0625C69.4311 99.1023 69.2493 99.142 68.9822 99.142C68.2947 99.142 67.6641 98.8182 67.6641 97.7216V92.1534H69.5106V91.2727ZM75.2422 100.182C76.9922 100.182 78.1683 99.233 78.566 98.1364L77.6058 97.8239C77.2706 98.608 76.4808 99.2557 75.2422 99.2557C73.4581 99.2557 72.3274 97.9545 72.2819 95.9375H78.7819V95.4375C78.7819 92.5227 76.9808 91.1534 75.0888 91.1534C72.8274 91.1534 71.2649 93.0455 71.2649 95.6875C71.2649 98.3352 72.799 100.182 75.2422 100.182ZM72.2876 95.0455C72.3956 93.4205 73.4922 92.0739 75.0888 92.0739C76.6513 92.0739 77.7479 93.3636 77.7479 95.0455H72.2876ZM81.0106 100H82.022V94.3636C82.022 93.0682 83.0163 92.1307 84.38 92.1307C84.647 92.1307 84.897 92.1761 84.9879 92.1875V91.1591C84.8516 91.1534 84.6186 91.142 84.4538 91.142C83.3572 91.142 82.4197 91.733 82.0675 92.6136H81.9936V91.2727H81.0106V100ZM91.9183 103.273C93.0092 103.273 93.8104 102.648 94.2763 101.381L97.9751 91.2898L96.8729 91.2727L94.2819 98.6648H94.2024L91.6115 91.2727H90.5149L93.7251 100.085L93.4069 100.972C92.924 102.29 92.2422 102.523 91.2138 102.199L90.941 103.091C91.1456 103.188 91.5206 103.273 91.9183 103.273ZM103.028 100.182C105.289 100.182 106.869 98.3352 106.869 95.6761C106.869 93 105.289 91.1534 103.028 91.1534C100.766 91.1534 99.1868 93 99.1868 95.6761C99.1868 98.3352 100.766 100.182 103.028 100.182ZM103.028 99.2557C101.215 99.2557 100.204 97.6307 100.204 95.6761C100.204 93.7216 101.215 92.0739 103.028 92.0739C104.84 92.0739 105.852 93.7216 105.852 95.6761C105.852 97.6307 104.84 99.2557 103.028 99.2557ZM114.634 96.6648C114.634 98.267 113.43 99.1307 112.248 99.1307C110.986 99.1307 110.1 98.2273 110.1 96.8636V91.2727H109.089V96.9261C109.089 98.9943 110.282 100.114 111.958 100.114C113.236 100.114 114.146 99.4489 114.555 98.5511H114.634V100H115.646V91.2727H114.634V96.6648ZM118.323 100H119.335V94.3636C119.335 93.0682 120.329 92.1307 121.692 92.1307C121.96 92.1307 122.21 92.1761 122.3 92.1875V91.1591C122.164 91.1534 121.931 91.142 121.766 91.142C120.67 91.142 119.732 91.733 119.38 92.6136H119.306V91.2727H118.323V100ZM128.526 100H129.538V94.3636C129.538 93.0682 130.532 92.1307 131.896 92.1307C132.163 92.1307 132.413 92.1761 132.504 92.1875V91.1591C132.367 91.1534 132.134 91.142 131.969 91.142C130.873 91.142 129.935 91.733 129.583 92.6136H129.509V91.2727H128.526V100ZM137.356 100.182C139.617 100.182 141.197 98.3352 141.197 95.6761C141.197 93 139.617 91.1534 137.356 91.1534C135.094 91.1534 133.515 93 133.515 95.6761C133.515 98.3352 135.094 100.182 137.356 100.182ZM137.356 99.2557C135.543 99.2557 134.532 97.6307 134.532 95.6761C134.532 93.7216 135.543 92.0739 137.356 92.0739C139.168 92.0739 140.18 93.7216 140.18 95.6761C140.18 97.6307 139.168 99.2557 137.356 99.2557ZM144.428 88.3636H143.417V100H144.428V88.3636ZM150.633 100.182C152.383 100.182 153.559 99.233 153.957 98.1364L152.996 97.8239C152.661 98.608 151.871 99.2557 150.633 99.2557C148.849 99.2557 147.718 97.9545 147.673 95.9375H154.173V95.4375C154.173 92.5227 152.371 91.1534 150.479 91.1534C148.218 91.1534 146.656 93.0455 146.656 95.6875C146.656 98.3352 148.19 100.182 150.633 100.182ZM147.678 95.0455C147.786 93.4205 148.883 92.0739 150.479 92.0739C152.042 92.0739 153.138 93.3636 153.138 95.0455H147.678ZM57.2045 122.273H58.2216V117.381H58.3125C58.6591 118.182 59.4091 119.182 60.9943 119.182C63.1307 119.182 64.5852 117.364 64.5852 114.659C64.5852 111.966 63.1364 110.153 60.9773 110.153C59.375 110.153 58.6648 111.153 58.3125 111.938H58.1875V110.273H57.2045V122.273ZM58.2045 114.642C58.2045 112.551 59.1648 111.074 60.8693 111.074C62.625 111.074 63.5682 112.631 63.5682 114.642C63.5682 116.676 62.6079 118.256 60.8693 118.256C59.1818 118.256 58.2045 116.75 58.2045 114.642ZM66.7997 119H67.8111V113.364C67.8111 112.068 68.8054 111.131 70.169 111.131C70.4361 111.131 70.6861 111.176 70.777 111.188V110.159C70.6406 110.153 70.4077 110.142 70.2429 110.142C69.1463 110.142 68.2088 110.733 67.8565 111.614H67.7827V110.273H66.7997V119ZM75.7656 119.182C77.5156 119.182 78.6918 118.233 79.0895 117.136L78.1293 116.824C77.794 117.608 77.0043 118.256 75.7656 118.256C73.9815 118.256 72.8508 116.955 72.8054 114.938H79.3054V114.438C79.3054 111.523 77.5043 110.153 75.6122 110.153C73.3508 110.153 71.7883 112.045 71.7883 114.688C71.7883 117.335 73.3224 119.182 75.7656 119.182ZM72.8111 114.045C72.919 112.42 74.0156 111.074 75.6122 111.074C77.1747 111.074 78.2713 112.364 78.2713 114.045H72.8111ZM85.125 110.273H83.1932V109.205C83.1932 108.29 83.6875 107.778 84.5682 107.778C84.9034 107.778 85.1079 107.852 85.2614 107.903L85.5568 107.017C85.3523 106.932 85.0114 106.824 84.4773 106.824C83.2898 106.824 82.1761 107.585 82.1761 108.994V110.273H80.8352V111.153H82.1761V119H83.1875L83.1932 111.153H85.125V110.273ZM90.3125 119.182C92.0625 119.182 93.2386 118.233 93.6364 117.136L92.6761 116.824C92.3409 117.608 91.5511 118.256 90.3125 118.256C88.5284 118.256 87.3977 116.955 87.3523 114.938H93.8523V114.438C93.8523 111.523 92.0511 110.153 90.1591 110.153C87.8977 110.153 86.3352 112.045 86.3352 114.688C86.3352 117.335 87.8693 119.182 90.3125 119.182ZM87.3579 114.045C87.4659 112.42 88.5625 111.074 90.1591 111.074C91.7216 111.074 92.8182 112.364 92.8182 114.045H87.3579ZM96.081 119H97.0923V113.364C97.0923 112.068 98.0866 111.131 99.4503 111.131C99.7173 111.131 99.9673 111.176 100.058 111.188V110.159C99.9219 110.153 99.6889 110.142 99.5241 110.142C98.4275 110.142 97.49 110.733 97.1378 111.614H97.0639V110.273H96.081V119ZM105.047 119.182C106.797 119.182 107.973 118.233 108.371 117.136L107.411 116.824C107.075 117.608 106.286 118.256 105.047 118.256C103.263 118.256 102.132 116.955 102.087 114.938H108.587V114.438C108.587 111.523 106.786 110.153 104.893 110.153C102.632 110.153 101.07 112.045 101.07 114.688C101.07 117.335 102.604 119.182 105.047 119.182ZM102.092 114.045C102.2 112.42 103.297 111.074 104.893 111.074C106.456 111.074 107.553 112.364 107.553 114.045H102.092ZM111.827 113.545C111.827 112.023 112.827 111.085 114.202 111.085C115.543 111.085 116.406 111.983 116.406 113.409V119H117.418V113.347C117.418 111.278 116.219 110.159 114.457 110.159C113.179 110.159 112.298 110.75 111.889 111.642H111.798V110.273H110.815V119H111.827V113.545ZM123.49 119.182C125.308 119.182 126.587 118.034 126.82 116.455H125.797C125.564 117.568 124.649 118.256 123.49 118.256C121.78 118.256 120.649 116.767 120.649 114.642C120.649 112.528 121.814 111.074 123.49 111.074C124.734 111.074 125.575 111.875 125.791 112.864H126.814C126.575 111.244 125.223 110.153 123.473 110.153C121.189 110.153 119.632 112.051 119.632 114.676C119.632 117.278 121.143 119.182 123.49 119.182ZM132.516 119.182C134.266 119.182 135.442 118.233 135.839 117.136L134.879 116.824C134.544 117.608 133.754 118.256 132.516 118.256C130.732 118.256 129.601 116.955 129.555 114.938H136.055V114.438C136.055 111.523 134.254 110.153 132.362 110.153C130.101 110.153 128.538 112.045 128.538 114.688C128.538 117.335 130.072 119.182 132.516 119.182ZM129.561 114.045C129.669 112.42 130.766 111.074 132.362 111.074C133.925 111.074 135.021 112.364 135.021 114.045H129.561ZM144.148 112.188C143.722 110.926 142.79 110.153 141.193 110.153C139.432 110.153 138.153 111.159 138.153 112.597C138.153 113.767 138.864 114.562 140.381 114.926L141.807 115.267C142.767 115.494 143.227 115.989 143.227 116.688C143.227 117.597 142.358 118.273 141.017 118.273C139.824 118.273 139.08 117.733 138.835 116.699L137.864 116.938C138.17 118.392 139.324 119.182 141.034 119.182C142.955 119.182 144.273 118.125 144.273 116.642C144.273 115.477 143.54 114.699 142.08 114.341L140.761 114.017C139.676 113.744 139.17 113.307 139.17 112.551C139.17 111.665 140.017 111.045 141.193 111.045C142.369 111.045 142.949 111.665 143.222 112.449L144.148 112.188Z" fill="white"/>
</g>
<defs>
<filter id="filter0_d" x="27.5177" y="0" width="156.655" height="152.273" filterUnits="userSpaceOnUse" color-interpolation-filters="sRGB">
<feFlood flood-opacity="0" result="BackgroundImageFix"/>
<feColorMatrix in="SourceAlpha" type="matrix" values="0 0 0 0 0 0 0 0 0 0 0 0 0 0 0 0 0 0 127 0" result="hardAlpha"/>
<feOffset dx="5" dy="5"/>
<feGaussianBlur stdDeviation="12.5"/>
<feComposite in2="hardAlpha" operator="out"/>
<feColorMatrix type="matrix" values="0 0 0 0 0.533333 0 0 0 0 0.290196 0 0 0 0 0.929412 0 0 0 0.8 0"/>
<feBlend mode="normal" in2="BackgroundImageFix" result="effect1_dropShadow"/>
<feBlend mode="normal" in="SourceGraphic" in2="effect1_dropShadow" result="shape"/>
</filter>
<linearGradient id="paint0_linear" x1="98.5192" y1="20" x2="98.5192" y2="70" gradientUnits="userSpaceOnUse">
<stop stop-opacity="0.4"/>
<stop offset="1" stop-color="#1F1926" stop-opacity="0.8"/>
</linearGradient>
</defs>
</svg>
