<svg width="201" height="145" viewBox="0 0 201 145" fill="none" xmlns="http://www.w3.org/2000/svg">
<circle cx="98.5192" cy="25" r="25" fill="url(#paint0_linear)"/>
<path d="M101.384 15.5455H99.2706L94.9069 18.4432V20.5909L99.1683 17.7614H99.2706V33H101.384V15.5455Z" fill="white"/>
<path d="M31.9943 80H33.0568V74.6534H38.1989V73.6989H33.0568V69.3182H38.7273V68.3636H31.9943V80ZM41.1704 80H42.1875V71.2727H41.1704V80ZM41.6875 69.7727C42.1023 69.7727 42.4489 69.4432 42.4489 69.0455C42.4489 68.6477 42.1023 68.3182 41.6875 68.3182C41.2727 68.3182 40.9318 68.6477 40.9318 69.0455C40.9318 69.4432 41.2727 69.7727 41.6875 69.7727ZM45.8736 68.3636H44.8622V80H45.8736V68.3636ZM49.5611 68.3636H48.5497V80H49.5611V68.3636ZM56.7486 80H57.7656V71.2727H56.7486V80ZM57.2656 69.7727C57.6804 69.7727 58.027 69.4432 58.027 69.0455C58.027 68.6477 57.6804 68.3182 57.2656 68.3182C56.8508 68.3182 56.5099 68.6477 56.5099 69.0455C56.5099 69.4432 56.8508 69.7727 57.2656 69.7727ZM61.4517 74.5455C61.4517 73.0227 62.4517 72.0852 63.8267 72.0852C65.1676 72.0852 66.0312 72.983 66.0312 74.4091V80H67.0426V74.3466C67.0426 72.2784 65.8437 71.1591 64.0824 71.1591C62.804 71.1591 61.9233 71.75 61.5142 72.642H61.4233V71.2727H60.4403V80H61.4517V74.5455ZM74.9105 83.2727C76.0014 83.2727 76.8025 82.6477 77.2685 81.3807L80.9673 71.2898L79.865 71.2727L77.2741 78.6648H77.1946L74.6037 71.2727H73.5071L76.7173 80.0852L76.3991 80.9716C75.9162 82.2898 75.2344 82.5227 74.206 82.1989L73.9332 83.0909C74.1378 83.1875 74.5128 83.2727 74.9105 83.2727ZM86.0199 80.1818C88.2812 80.1818 89.8608 78.3352 89.8608 75.6761C89.8608 73 88.2812 71.1534 86.0199 71.1534C83.7585 71.1534 82.179 73 82.179 75.6761C82.179 78.3352 83.7585 80.1818 86.0199 80.1818ZM86.0199 79.2557C84.2074 79.2557 83.196 77.6307 83.196 75.6761C83.196 73.7216 84.2074 72.0739 86.0199 72.0739C87.8324 72.0739 88.8437 73.7216 88.8437 75.6761C88.8437 77.6307 87.8324 79.2557 86.0199 79.2557ZM97.6264 76.6648C97.6264 78.267 96.4219 79.1307 95.24 79.1307C93.9787 79.1307 93.0923 78.2273 93.0923 76.8636V71.2727H92.081V76.9261C92.081 78.9943 93.2741 80.1136 94.9503 80.1136C96.2287 80.1136 97.1378 79.4489 97.5469 78.5511H97.6264V80H98.6378V71.2727H97.6264V76.6648ZM101.315 80H102.327V74.3636C102.327 73.0682 103.321 72.1307 104.685 72.1307C104.952 72.1307 105.202 72.1761 105.293 72.1875V71.1591C105.156 71.1534 104.923 71.142 104.759 71.142C103.662 71.142 102.724 71.733 102.372 72.6136H102.298V71.2727H101.315V80ZM113.956 80.1989C115.411 80.1989 116.297 79.392 116.661 78.6193H116.723V80H117.734V74.0739C117.734 71.733 115.973 71.1534 114.638 71.1534C113.303 71.1534 111.928 71.6818 111.337 73.108L112.297 73.4545C112.615 72.7045 113.405 72.0625 114.666 72.0625C115.99 72.0625 116.723 72.7898 116.723 73.983V74.1875C116.723 74.8466 115.905 74.858 114.439 75.0398C112.467 75.2841 111.087 75.8352 111.087 77.5625C111.087 79.2443 112.371 80.1989 113.956 80.1989ZM114.092 79.2727C112.95 79.2727 112.098 78.6648 112.098 77.608C112.098 76.5511 112.962 76.108 114.439 75.9261C115.155 75.8409 116.428 75.6818 116.723 75.392V76.6534C116.723 78.0852 115.706 79.2727 114.092 79.2727ZM123.834 80.1818C125.652 80.1818 126.93 79.0341 127.163 77.4545H126.141C125.908 78.5682 124.993 79.2557 123.834 79.2557C122.124 79.2557 120.993 77.767 120.993 75.642C120.993 73.5284 122.158 72.0739 123.834 72.0739C125.078 72.0739 125.919 72.875 126.135 73.8636H127.158C126.919 72.2443 125.567 71.1534 123.817 71.1534C121.533 71.1534 119.976 73.0511 119.976 75.6761C119.976 78.2784 121.487 80.1818 123.834 80.1818ZM132.74 80.1818C134.558 80.1818 135.837 79.0341 136.07 77.4545H135.047C134.814 78.5682 133.899 79.2557 132.74 79.2557C131.03 79.2557 129.899 77.767 129.899 75.642C129.899 73.5284 131.064 72.0739 132.74 72.0739C133.984 72.0739 134.825 72.875 135.041 73.8636H136.064C135.825 72.2443 134.473 71.1534 132.723 71.1534C130.439 71.1534 128.882 73.0511 128.882 75.6761C128.882 78.2784 130.393 80.1818 132.74 80.1818ZM141.629 80.1818C143.891 80.1818 145.47 78.3352 145.47 75.6761C145.47 73 143.891 71.1534 141.629 71.1534C139.368 71.1534 137.788 73 137.788 75.6761C137.788 78.3352 139.368 80.1818 141.629 80.1818ZM141.629 79.2557C139.817 79.2557 138.805 77.6307 138.805 75.6761C138.805 73.7216 139.817 72.0739 141.629 72.0739C143.442 72.0739 144.453 73.7216 144.453 75.6761C144.453 77.6307 143.442 79.2557 141.629 79.2557ZM153.236 76.6648C153.236 78.267 152.031 79.1307 150.849 79.1307C149.588 79.1307 148.702 78.2273 148.702 76.8636V71.2727H147.69V76.9261C147.69 78.9943 148.884 80.1136 150.56 80.1136C151.838 80.1136 152.747 79.4489 153.156 78.5511H153.236V80H154.247V71.2727H153.236V76.6648ZM157.936 74.5455C157.936 73.0227 158.936 72.0852 160.311 72.0852C161.652 72.0852 162.516 72.983 162.516 74.4091V80H163.527V74.3466C163.527 72.2784 162.328 71.1591 160.567 71.1591C159.288 71.1591 158.408 71.75 157.999 72.642H157.908V71.2727H156.925V80H157.936V74.5455ZM169.628 71.2727H167.781V69.1818H166.764V71.2727H165.463V72.1534H166.764V77.9602C166.764 79.3864 167.889 80.1307 169.009 80.1307C169.429 80.1307 169.713 80.0511 169.906 79.9773L169.69 79.0625C169.548 79.1023 169.366 79.142 169.099 79.142C168.412 79.142 167.781 78.8182 167.781 77.7216V72.1534H169.628V71.2727ZM59.7798 99H60.7969V90.2727H59.7798V99ZM60.2969 88.7727C60.7116 88.7727 61.0582 88.4432 61.0582 88.0455C61.0582 87.6477 60.7116 87.3182 60.2969 87.3182C59.8821 87.3182 59.5412 87.6477 59.5412 88.0455C59.5412 88.4432 59.8821 88.7727 60.2969 88.7727ZM64.4829 93.5455C64.4829 92.0227 65.4829 91.0852 66.8579 91.0852C68.1989 91.0852 69.0625 91.983 69.0625 93.4091V99H70.0739V93.3466C70.0739 91.2784 68.875 90.1591 67.1136 90.1591C65.8352 90.1591 64.9545 90.75 64.5454 91.642H64.4545V90.2727H63.4716V99H64.4829V93.5455ZM76.3281 90.2727H74.3963V89.2045C74.3963 88.2898 74.8906 87.7784 75.7713 87.7784C76.1065 87.7784 76.3111 87.8523 76.4645 87.9034L76.7599 87.017C76.5554 86.9318 76.2145 86.8239 75.6804 86.8239C74.4929 86.8239 73.3793 87.5852 73.3793 88.9943V90.2727H72.0383V91.1534H73.3793V99H74.3906L74.3963 91.1534H76.3281V90.2727ZM81.3793 99.1818C83.6406 99.1818 85.2202 97.3352 85.2202 94.6761C85.2202 92 83.6406 90.1534 81.3793 90.1534C79.1179 90.1534 77.5383 92 77.5383 94.6761C77.5383 97.3352 79.1179 99.1818 81.3793 99.1818ZM81.3793 98.2557C79.5668 98.2557 78.5554 96.6307 78.5554 94.6761C78.5554 92.7216 79.5668 91.0739 81.3793 91.0739C83.1918 91.0739 84.2031 92.7216 84.2031 94.6761C84.2031 96.6307 83.1918 98.2557 81.3793 98.2557ZM87.4403 99H88.4517V93.3636C88.4517 92.0682 89.446 91.1307 90.8096 91.1307C91.0767 91.1307 91.3267 91.1761 91.4176 91.1875V90.1591C91.2812 90.1534 91.0483 90.142 90.8835 90.142C89.7869 90.142 88.8494 90.733 88.4971 91.6136H88.4233V90.2727H87.4403V99ZM93.1435 99H94.1548V93.4091C94.1548 92.0511 95.0582 91.0852 96.2685 91.0852C97.4616 91.0852 98.1548 91.8807 98.1548 93.0625V99H99.1889V93.2557C99.1889 92 99.9389 91.0852 101.268 91.0852C102.422 91.0852 103.189 91.7784 103.189 93.1534V99H104.2V93.1534C104.2 91.1989 103.195 90.1591 101.575 90.1591C100.303 90.1591 99.3821 90.7784 98.99 91.7443H98.9162C98.5298 90.7557 97.7628 90.1591 96.5582 90.1591C95.4162 90.1591 94.5639 90.7102 94.2173 91.6136H94.1264V90.2727H93.1435V99ZM109.315 99.1989C110.77 99.1989 111.656 98.392 112.02 97.6193H112.082V99H113.094V93.0739C113.094 90.733 111.332 90.1534 109.997 90.1534C108.662 90.1534 107.287 90.6818 106.696 92.108L107.656 92.4545C107.974 91.7045 108.764 91.0625 110.026 91.0625C111.349 91.0625 112.082 91.7898 112.082 92.983V93.1875C112.082 93.8466 111.264 93.858 109.798 94.0398C107.827 94.2841 106.446 94.8352 106.446 96.5625C106.446 98.2443 107.73 99.1989 109.315 99.1989ZM109.452 98.2727C108.31 98.2727 107.457 97.6648 107.457 96.608C107.457 95.5511 108.321 95.108 109.798 94.9261C110.514 94.8409 111.787 94.6818 112.082 94.392V95.6534C112.082 97.0852 111.065 98.2727 109.452 98.2727ZM119.222 90.2727H117.375V88.1818H116.358V90.2727H115.057V91.1534H116.358V96.9602C116.358 98.3864 117.483 99.1307 118.602 99.1307C119.023 99.1307 119.307 99.0511 119.5 98.9773L119.284 98.0625C119.142 98.1023 118.96 98.142 118.693 98.142C118.006 98.142 117.375 97.8182 117.375 96.7216V91.1534H119.222V90.2727ZM121.53 99H122.547V90.2727H121.53V99ZM122.047 88.7727C122.462 88.7727 122.808 88.4432 122.808 88.0455C122.808 87.6477 122.462 87.3182 122.047 87.3182C121.632 87.3182 121.291 87.6477 121.291 88.0455C121.291 88.4432 121.632 88.7727 122.047 88.7727ZM128.614 99.1818C130.875 99.1818 132.455 97.3352 132.455 94.6761C132.455 92 130.875 90.1534 128.614 90.1534C126.352 90.1534 124.773 92 124.773 94.6761C124.773 97.3352 126.352 99.1818 128.614 99.1818ZM128.614 98.2557C126.801 98.2557 125.79 96.6307 125.79 94.6761C125.79 92.7216 126.801 91.0739 128.614 91.0739C130.426 91.0739 131.437 92.7216 131.437 94.6761C131.437 96.6307 130.426 98.2557 128.614 98.2557ZM135.686 93.5455C135.686 92.0227 136.686 91.0852 138.061 91.0852C139.402 91.0852 140.266 91.983 140.266 93.4091V99H141.277V93.3466C141.277 91.2784 140.078 90.1591 138.317 90.1591C137.038 90.1591 136.158 90.75 135.749 91.642H135.658V90.2727H134.675V99H135.686V93.5455Z" fill="white"/>
<defs>
<linearGradient id="paint0_linear" x1="98.5192" y1="0" x2="98.5192" y2="50" gradientUnits="userSpaceOnUse">
<stop stop-opacity="0.4"/>
<stop offset="1" stop-color="#1F1926" stop-opacity="0.8"/>
</linearGradient>
</defs>
</svg>
